<?xml version="1.0" encoding="utf-8"?>
<!-- Generator: Adobe Illustrator 18.0.0, SVG Export Plug-In . SVG Version: 6.00 Build 0)  -->
<!DOCTYPE svg PUBLIC "-//W3C//DTD SVG 1.1//EN" "http://www.w3.org/Graphics/SVG/1.1/DTD/svg11.dtd">
<svg version="1.1" id="Layer_1" xmlns="http://www.w3.org/2000/svg" xmlns:xlink="http://www.w3.org/1999/xlink" x="0px" y="0px"
	 viewBox="0 0 118.2 125.2" enable-background="new 0 0 118.2 125.2" xml:space="preserve">
<polygon fill="#FFFFFF" points="81.2,120.4 88.6,118.9 88.6,115.3 81.2,116.7 "/>
<g>
	<path fill="none" d="M-49,108l-1.5-1.5l-1.5,0.3l-8.9,9l0-3.6l1.5-2.1v-1.8l-32.5,11.7v1.8c4.9-1,7.4-0.2,7.4,2.2l-5.9,1.1
		c-5.6,1.1-18.4-2.5-38.4-10.7v1.8c-9.6-6.7-18.4-17.7-26.6-32.9l-1.5-8.8v-1.8c0-28.7,9.4-48.7,28.2-59.9l8.9-9l1.5,1.5l10.3-3.8
		l3-0.6c8.2-1.6,22.4,5.3,42.8,20.7l-1.5,0.3c-9.7-7-20.6-12.2-32.5-15.5l-1.5,0.3v1.8C-83.2,10.2-65,23-43,47l-5.9-11.6v-1.8
		c4.5-0.9,8,9.9,10.3,32.4V0.7h-118.2v124.5h118.2V66.1C-38.6,80.3-42.1,94.2-49,108z M-68.2,118.9l-7.4,1.4l0-3.6l7.4-1.4V118.9z"
		/>
	<polygon fill="none" points="-105.1,6.4 -116.9,8.7 -116.9,10.5 -105.1,8.2 	"/>
	<path fill="#FFFFFF" d="M-108.9,49.2c0,0,0.1,0.1,0.1,0.1c4,7.4,14.5,15.2,17.7,17.5c3.2-2.3,13.7-10.1,17.7-17.5
		c0,0,0-0.1,0.1-0.1c0.9-1.4,1.4-3.1,1.4-4.8c0-4.8-3.9-8.7-8.7-8.7c-3.5,0-6.4,3.4-8,5.2c-1,1.1-1.5,1.8-2.5,1.8
		c-1,0-1.5-0.6-2.5-1.8c-1.6-1.8-4.5-5.2-8-5.2c-4.8,0-8.7,3.9-8.7,8.7C-110.3,46.1-109.8,47.8-108.9,49.2z"/>
	<path fill="#FFFFFF" d="M-74.4,74.3c-2.2,2.2-4.7,4.4-6.1,5.6c0.2,0.5,0.3,1,0.3,1.6c0,2.5-2,4.5-4.5,4.5L-98,86.8c0,0-0.1,0-0.1,0
		c-2.1,0-4.6-1.8-7.2-3.6c-1.2-0.9-2.4-1.7-3.3-2.2c-0.9-0.4-1.2-1.5-0.8-2.3c0.4-0.9,1.5-1.2,2.3-0.8c0.8,0.4,1.6,0.9,2.5,1.6
		c0.4,0.3,0.8,0.6,1.3,0.9c1.7,1.2,4.1,2.9,5.2,3l13.2-0.7c0,0,0.1,0,0.1,0c0.6,0,1-0.5,1-1c0-0.6-0.5-1-1-1c0,0-0.1,0-0.1,0
		c-1.2-0.1-5.7-0.3-9.3-1c-1.7-0.3-3.2-0.8-4.1-1.3c-1.8-1.1-3.2-2.1-4.5-3c-3.2-2.3-5.2-3.7-10.7-3.7c-1.4,0-2.7,0.4-4.2,0.9
		c-1.8,0.6-3.8,1.2-6.3,1.2c-0.2,0-0.4,0.2-0.4,0.4v9.8c0,0.2,0.2,0.3,0.4,0.3c1.6,0,9.5,0,11.7,0.8c3,1,9.5,5,10.2,5.4
		c0.1,0.1,0.3,0.1,0.5,0.1h17.8c0.4,0,1.4-0.7,1.7-1.3c2.3-3.8,9.7-13.2,10.9-14.7c0.2-0.5-0.2-1.1-0.6-1.3
		C-72.4,72.7-72.9,72.8-74.4,74.3z"/>
	<path fill="#FFFFFF" d="M-48.9,33.6v1.8L-43,47C-65,23-83.2,10.2-97.7,8.6V6.8l1.5-0.3c11.9,3.3,22.8,8.5,32.5,15.5l1.5-0.3
		C-82.6,6.3-96.9-0.6-105,0.9l-3,0.6l-10.3,3.8l-1.5-1.5l-8.9,9c-18.7,11.2-28.1,31.1-28.2,59.9v1.8l1.5,8.8
		c8.2,15.3,17,26.3,26.6,32.9v-1.8c20,8.2,32.8,11.8,38.4,10.7l5.9-1.1c0-2.4-2.5-3.2-7.4-2.2v-1.8l32.5-11.7v1.8l-1.5,2.1l0,3.6
		l8.9-9l1.5-0.3l1.5,1.5c6.9-13.7,10.4-27.7,10.4-41.9v0C-41,43.5-44.4,32.7-48.9,33.6z M-101.6,32.2c5,0,8.6,4.1,10.5,6.3
		c1.9-2.2,5.5-6.3,10.5-6.3c6.7,0,12.2,5.5,12.2,12.2c0,2.4-0.7,4.6-2,6.6c-5.2,9.5-19.2,18.9-19.8,19.3c-0.3,0.2-0.6,0.3-1,0.3
		c-0.3,0-0.7-0.1-1-0.3c-0.6-0.4-14.6-9.8-19.8-19.3c-1.3-2-2-4.3-2-6.6C-113.8,37.7-108.3,32.2-101.6,32.2z M-116.9,8.7l11.8-2.3
		v1.8l-11.8,2.3V8.7z M-68.1,76c-0.1,0.1-0.1,0.2-0.2,0.3l-10.8,14.5c-0.7,1.2-2.8,2.9-4.7,2.9h-17.8c-0.8,0-1.5-0.2-2.2-0.6
		c0,0,0,0-0.1,0c-1.9-1.2-7.2-4.3-9.5-5.1c-1.3-0.4-7-0.6-10.6-0.6c-2.1,0-3.8-1.7-3.8-3.8v-9.8c0-2.1,1.7-3.8,3.8-3.8
		c1.9,0,3.5-0.5,5.2-1c1.6-0.5,3.3-1.1,5.3-1.1c6.7,0,9.4,1.9,12.8,4.4c1.2,0.9,2.5,1.8,4.2,2.8c1.6,0.9,7.8,1.6,11.7,1.9
		c0.6,0,1.2,0.1,1.8,0.4c1.3-1.1,3.9-3.3,6-5.5c1-1,3.7-3.8,6.9-1.9C-67.9,71.2-67,73.8-68.1,76z"/>
	<polygon fill="#FFFFFF" points="-75.6,120.4 -68.2,118.9 -68.2,115.3 -75.6,116.7 	"/>
</g>
<g>
	<polygon fill="none" points="-250.4,5.7 -262.2,8 -262.2,9.8 -250.4,7.5 	"/>
	<path fill="none" d="M-194.3,107.2l-1.5-1.5l-1.5,0.3l-8.9,9l0-3.6l1.5-2.1v-1.8l-32.5,11.7v1.8c4.9-1,7.4-0.2,7.4,2.2l-5.9,1.1
		c-5.6,1.1-18.4-2.5-38.4-10.7v1.8c-9.6-6.7-18.4-17.7-26.6-32.9l-1.5-8.8v-1.8c0-28.7,9.4-48.7,28.2-59.9l8.9-9l1.5,1.5l10.3-3.8
		l3-0.6c8.2-1.6,22.4,5.3,42.8,20.7l-1.5,0.3c-9.7-7-20.6-12.2-32.5-15.5L-243,6v1.8c14.4,1.6,32.6,14.4,54.6,38.4l-5.9-11.6v-1.8
		c4.5-0.9,8,9.9,10.3,32.4V0h-118.2v124.5h118.2V65.3C-183.9,79.6-187.4,93.5-194.3,107.2z M-213.5,118.2l-7.4,1.4l0-3.6l7.4-1.4
		V118.2z"/>
	<path fill="#FFFFFF" d="M-213.6,83.9c-0.9,0-1.7,0.3-2.3,0.9c-1.3,1.3-1.3,3.3,0,4.6c1.2,1.2,3.3,1.2,4.5,0c1.3-1.3,1.3-3.3,0-4.6
		C-211.9,84.2-212.7,83.9-213.6,83.9z"/>
	<polygon fill="#FFFFFF" points="-242.2,77.5 -242.2,75.7 -242.2,74.1 -242.2,74.1 -242.2,73.2 -237.6,66.5 -218.7,66.5 
		-222.3,43.6 -260.8,43.6 -265.3,70.9 -265.8,71.9 -267.9,73.9 -264.9,73.9 -252,64.2 -254.8,60.5 -252.1,58.4 -243.5,69.9 
		-246.2,71.9 -249,68.2 -260.9,77.1 -254.7,85.5 -254.7,85.5 -242.2,85.5 -242.2,77.5 	"/>
	<path fill="#FFFFFF" d="M-270.2,83.9c-0.9,0-1.7,0.3-2.3,0.9c-1.3,1.3-1.3,3.3,0,4.6c1.2,1.2,3.3,1.2,4.5,0c1.3-1.3,1.3-3.3,0-4.6
		C-268.5,84.2-269.4,83.9-270.2,83.9z"/>
	<polygon fill="#FFCB05" points="-238.6,74.1 -206.9,74.1 -206.9,70 -235.8,70 	"/>
	<polygon fill="#FFFFFF" points="-220.9,119.6 -213.5,118.2 -213.5,114.6 -220.9,116 	"/>
	<polygon fill="#FFCB05" points="-238.7,85.5 -227.8,85.5 -223.1,77.6 -238.8,77.5 	"/>
	<path fill="#FFFFFF" d="M-194.2,32.9v1.8l5.9,11.6c-22-24-40.2-36.8-54.6-38.4V6l1.5-0.3c11.9,3.3,22.8,8.5,32.5,15.5l1.5-0.3
		c-20.4-15.4-34.7-22.3-42.8-20.7l-3,0.6l-10.3,3.8l-1.5-1.5l-8.9,9c-18.7,11.2-28.1,31.1-28.2,59.9v1.8l1.5,8.8
		c8.2,15.3,17,26.3,26.6,32.9v-1.8c20,8.2,32.8,11.8,38.4,10.7l5.9-1.1c0-2.4-2.5-3.2-7.4-2.2v-1.8l32.5-11.7v1.8l-1.5,2.1l0,3.6
		l8.9-9l1.5-0.3l1.5,1.5c6.9-13.7,10.4-27.7,10.4-41.9v0C-186.3,42.8-189.7,32-194.2,32.9z M-262.2,8l11.8-2.3v1.8l-11.8,2.3V8z
		 M-264.4,92.9c-1.5,1.5-3.6,2.4-5.8,2.4c-2.2,0-4.2-0.9-5.8-2.4c-3.2-3.2-3.2-8.4,0-11.6c1.5-1.5,3.6-2.4,5.8-2.4
		c2.2,0,4.2,0.9,5.8,2.4C-261.2,84.5-261.2,89.7-264.4,92.9z M-207.8,92.9c-1.5,1.5-3.6,2.4-5.8,2.4c-2.2,0-4.2-0.9-5.8-2.4
		c-3.2-3.2-3.2-8.4,0-11.6c1.5-1.5,3.6-2.4,5.8-2.4c2.2,0,4.2,0.9,5.8,2.4C-204.6,84.5-204.6,89.7-207.8,92.9z M-203.4,77.6l-15.7,0
		l-6.8,11.4h-30.6l-8.6-11.6h-7.2l-1.2-3l4.8-4.5l4.3-26.2h-7.2v-5h61v5h-8.2l3.6,22.9h11.8V77.6z"/>
	<path fill="#FFFFFF" d="M-227.8,85.5h-10.9l0-7.9l15.7,0L-227.8,85.5z M-206.9,74.1h-31.8l2.8-4.1h29V74.1z"/>
</g>
<g>
	<path fill="#FFFFFF" d="M53,41.4c-1.5-2.6-3-5.1-4-7l-0.3-0.6c-0.2-0.5-0.5-0.9-0.7-1.2c0-0.1-0.1-0.1-0.1-0.2l-0.6,1
		c-1.8,3.2-4.9,8.5-6.6,11.4l-0.4,0.7c0.9,0.5,2.2,1.3,3.5,2c2,1.2,4.2,2.5,5.6,3.2c0.7-1.2,2.1-3.6,4.7-8c-0.2-0.3-0.3-0.5-0.5-0.8
		C53.3,41.9,53.2,41.7,53,41.4z"/>
	<polygon fill="#939598" points="47.9,31.3 47.9,32.3 47.9,32.3 	"/>
	<path fill="#FFFFFF" d="M59.3,44.1c1.2,2.1,2.3,3.9,3.1,5.3c0,0.1,0.1,0.1,0.1,0.2c0.2,0.4,0.4,1,0.2,1.8c-0.3,0.9-1.1,1.3-1.4,1.5
		c-0.1,0-0.1,0.1-0.2,0.1l-0.8,0.5l12,3.3l3.3-12.1l-1.2,0.7c-0.3,0.2-0.6,0.4-1.2,0.4c-1,0-1.6-0.6-1.9-1.2l-6.3-10.9
		c-0.3-0.5-1.1-1.3-2.1-1.3H52.4l4.9,8.5C58,41.8,58.7,43,59.3,44.1z"/>
	<path fill="#FFFFFF" d="M107.9,33.6v1.8l5.9,11.6c-22-24-40.2-36.8-54.6-38.4V6.8l1.5-0.3c11.9,3.3,22.8,8.5,32.5,15.5l1.5-0.3
		C74.3,6.3,60-0.6,51.8,0.9l-3,0.6L38.5,5.3L37,3.8l-8.9,9C9.4,24,0,43.9,0,72.6v1.8l1.5,8.8c8.2,15.3,17,26.3,26.6,32.9v-1.8
		c20,8.2,32.8,11.8,38.4,10.7l5.9-1.1c0-2.4-2.5-3.2-7.4-2.2v-1.8l32.5-11.7v1.8l-1.5,2.1l0,3.6l8.9-9l1.5-0.3l1.5,1.5
		c6.9-13.7,10.4-27.7,10.4-41.9v0C115.9,43.5,112.4,32.7,107.9,33.6z M40,8.7l11.8-2.3v1.8L40,10.5V8.7z M49.6,93.1
		c0,0.8-0.5,1.5-1.1,1.9c0,0-0.1,0-0.1,0.1c-0.3,0.1-0.6,0.2-1,0.2H30.4c-1.7,0-2.8-0.6-3.5-1.8c-0.2-0.3-5.4-9.4-7.5-12.8
		c-1.3-2.3-0.8-4.8,0.1-6.3l5.5-9.5l-3.6-2.1c-0.9-0.6-1.2-1.4-1-2.2c0.2-0.7,0.7-1.3,1.5-1.5l17.8-4.8c0.3-0.2,0.6-0.2,0.7-0.2
		c0.8,0,1.7,0.5,2,1.7l4.7,17.9c0.1,0.7,0,1.3-0.3,1.8c-0.5,0.7-1.6,1-2.5,0.5l-3.7-2.2c-0.5,1-1.4,2.4-2,3.5h8.8
		c0.6,0,1.2,0.3,1.6,0.7c0,0,0.1,0.1,0.1,0.1c0.4,0.5,0.6,1.1,0.6,1.6V93.1z M50.3,55.3c-0.1,0-0.2,0-0.2,0h-0.2
		c-0.6,0-0.9-0.2-1.1-0.3c0,0-0.1,0-0.1-0.1c-0.3-0.2-3.3-1.9-5.9-3.4c-4.2-2.4-5.4-3.1-5.8-3.4c-0.7-0.3-1.1-1.1-1.1-1.9
		c0-0.4,0.1-0.7,0.2-0.9c0-0.2,0.1-0.3,0.2-0.4c0.1-0.2,0.3-0.6,0.7-1.2c0.9-1.6,2.9-5,7.1-12.2l0.5-1.1c1.1-1.7,2.4-2.1,3.3-2.1
		h14.9c2.6,0,4.5,1.8,5.4,3.3l5.5,9.5l3.6-2c0.9-0.5,2-0.3,2.6,0.5c0.3,0.3,0.6,0.9,0.4,1.8l-4.9,18c-0.3,1-1.1,1.6-2,1.6
		c-0.2,0-0.4-0.1-0.4-0.1c0,0-0.1,0-0.1,0l-17.9-4.9c-1-0.2-1.4-1-1.5-1.5c-0.2-0.6,0-1.5,0.9-2.1l3.8-2.2c-0.1-0.2-0.3-0.5-0.4-0.8
		c-0.4-0.7-0.9-1.6-1.5-2.6c-1.7,3-4.1,7-4.4,7.5C51.5,54.6,51.1,55,50.3,55.3z M93.3,79.3c-0.1,0.1-4.7,8.2-7.4,12.9
		c-1.3,2.1-3.7,3.1-5.5,3.1h-11v4.1c0,0,0,0.1,0,0.1c-0.1,1.1-1,1.9-2.1,1.9c-0.5,0-1-0.2-1.4-0.6L52.8,87.6c0,0-0.1-0.1-0.1-0.1
		c-0.4-0.5-0.5-0.9-0.5-1.4c0-0.2,0.1-0.9,0.7-1.5L66,71.5c0.5-0.5,1-0.6,1.4-0.6c1.1,0,2,0.9,2,2.1v4.3h3.9c-1.5-2.5-4-7-4.3-7.6
		c-0.4-0.7-0.2-1.5-0.2-1.7c0.1-0.6,0.5-1.1,1.1-1.4c0,0,0.1,0,0.1-0.1c0.4-0.2,2.7-1.5,11.1-6.3l0.6-0.3c0.6-0.4,1.5-0.4,2.2,0
		c0.3,0.1,0.4,0.3,0.6,0.5c0,0,0.1,0.1,0.1,0.1c0.2,0.2,0.2,0.2,2.2,3.6c1.1,2,3,5.2,5.9,10.2l0.6,1.2C94,76.8,94,78.1,93.3,79.3z"
		/>
	<path fill="#FFFFFF" d="M86.6,71.7c-1.7-2.9-3.4-6-4.4-7.7c-3.3,1.9-5.6,3.3-7.2,4.2c-0.7,0.4-1.3,0.8-1.8,1
		c0.7,1.3,2.1,3.7,4.7,8.1h11.8c0,0,0.1,0,0.1,0l-0.6-1.2L86.6,71.7z"/>
	<path fill="#FFFFFF" d="M36.6,72.9l1.2-2.1c0.4-0.9,1.1-1.4,2-1.4c0.5,0,0.9,0.1,1.3,0.4c0.1,0,0.2,0,0.2,0.1l1,0.6l-3.2-12.1
		l-12,3.2l1.1,0.7c0.6,0.4,1.8,1.3,0.9,3.1l-6.3,10.9c-0.4,0.6-0.5,1.7-0.3,2.6c0.5,0.8,3.4,5.8,5.3,9l5-8.8
		C34.2,76.9,35.5,74.7,36.6,72.9z"/>
	<path fill="#FFFFFF" d="M36,81.8c-0.2,0.3-0.3,0.6-0.5,0.8c-1.4,2.5-2.9,5-3.9,6.8c-0.2,0.4-0.4,0.7-0.6,1c-0.2,0.4-0.4,0.7-0.6,1
		h15.3l0.1-10.3h-9.4C36.3,81.3,36.2,81.6,36,81.8z"/>
	<path fill="#FFFFFF" d="M66.3,80.4C66.2,80.4,66.2,80.4,66.3,80.4c-0.6-0.8-0.6-1.5-0.6-1.9v-1.2l-8.9,8.8l8.8,8.9v-1.3
		c0.1-1.7,1.2-2.3,2.2-2.3h12.7c0.6,0,1.7-0.4,2.1-1.2l5.2-9.1H68C67.5,81.1,66.8,80.9,66.3,80.4z"/>
</g>
</svg>
